<?xml version="1.0" encoding="utf-8"?>
<svg version="1.1" xmlns="http://www.w3.org/2000/svg" xmlns:xlink="http://www.w3.org/1999/xlink" x="0px" y="0px" viewBox="0 0 256 256" enable-background="new 0 0 256 256" xml:space="preserve">
<g><path fill="rgba(0,0,0,0.05)" d="M116.7,10.3C88.9,13.2,64,24.9,44.4,44.5c-18.8,18.8-29.9,41.6-33.9,69c-0.8,5.5-0.8,23.6,0,29.1c3.9,27.4,15.1,50.3,33.9,69c18.7,18.7,41.7,30,69,33.9c5.4,0.8,23.6,0.8,29.1,0c22.6-3.2,42.9-11.8,59.6-25.4c23.8-19.2,38.8-46.1,43.3-77.5c0.8-5.5,0.8-23.6,0-29.1c-3.9-27.3-15.1-50.3-33.9-69c-18.3-18.3-40.6-29.5-66.9-33.5C138.8,10.1,122.6,9.6,116.7,10.3z"/><path fill="rgba(0,0,0,0.35)" d="M81.5,79.3c-1.8,0.9-3.1,3.4-2.7,5.4c0.3,1.2,4.9,6,21.2,22.4l20.8,20.9L100,148.9c-16.3,16.4-20.9,21.2-21.2,22.4c-0.7,3.3,2.6,6.6,5.9,5.9c1.2-0.3,6-4.9,22.4-21.2l20.9-20.8l20.9,20.8c16.4,16.3,21.2,20.9,22.4,21.2c3.3,0.7,6.6-2.6,5.9-5.9c-0.3-1.2-4.9-6-21.2-22.4L135.2,128l20.8-20.9c16.3-16.4,20.9-21.2,21.2-22.4c0.7-3.3-2.6-6.6-5.9-5.9c-1.2,0.3-6,4.9-22.4,21.2L128,120.9l-20.7-20.6C95.9,88.9,86.1,79.3,85.4,79.1C83.7,78.5,83.2,78.5,81.5,79.3z"/></g>
</svg>